# xmcd
#
# Track frame offsets: 
#        150
#        11523
#        33658
#        50075
#        62440
#        76738
#        93588
#        106168
#        128680
#        140020
#        151488
#        164990
#        179245
#        200695
#        218733
#        237745
#        260698
#        278885
#
# Disc length: 3964 seconds
#
# Revision: 0
# Processed by: cddbd v1.5.2PL0 Copyright (c) Steve Scherf et al.
# Submitted via: ExactAudioCopy v1.1
#
DISCID=140f7a12
DTITLE=George Lewis - Jam Sessions
DYEAR=1991
DGENRE=Jazz
TTITLE0=Willie the Weeper
TTITLE1=2:19 Blues
TTITLE2=Martha
TTITLE3=Ole Miss
TTITLE4=Stompin at el Marocco
TTITLE5=Bugle Boy March
TTITLE6=Bugle Boy March
TTITLE7=Jerusalem Blues
TTITLE8=Sheik of Araby
TTITLE9=Sheik of Araby
TTITLE10=Pallet on the Floor
TTITLE11=Chicken
TTITLE12=Smiles
TTITLE13=Mecca Flat Blues
TTITLE14=Good Morning Blues
TTITLE15=Till We Meet Again
TTITLE16=Glory of Love
TTITLE17=Should I Reveal
EXTD=
EXTT0=
EXTT1=
EXTT2=
EXTT3=
EXTT4=
EXTT5=
EXTT6=
EXTT7=
EXTT8=
EXTT9=
EXTT10=
EXTT11=
EXTT12=
EXTT13=
EXTT14=
EXTT15=
EXTT16=
EXTT17=
PLAYORDER=
